{
	"asset":{
		"generator":"Khronos glTF Blender I/O v3.6.28",
		"version":"2.0"
	},
	"scene":0,
	"scenes":[
		{
			"name":"Scene",
			"nodes":[
				0
			]
		}
	],
	"nodes":[
		{
			"mesh":0,
			"name":"Platform01"
		}
	],
	"materials":[
		{
			"doubleSided":true,
			"name":"MAT_Atlas01",
			"pbrMetallicRoughness":{
				"baseColorTexture":{
					"index":0
				},
				"metallicFactor":0,
				"roughnessFactor":0.5527864098548889
			}
		}
	],
	"meshes":[
		{
			"name":"Cylinder_001.002",
			"primitives":[
				{
					"attributes":{
						"POSITION":0,
						"NORMAL":1,
						"TEXCOORD_0":2
					},
					"indices":3,
					"material":0
				}
			]
		}
	],
	"textures":[
		{
			"sampler":0,
			"source":0
		}
	],
	"images":[
		{
			"mimeType":"image/png",
			"name":"TEX_ColorPalette_128",
			"uri":"Texture/TEX_ColorPalette_128.png"
		}
	],
	"accessors":[
		{
			"bufferView":0,
			"componentType":5126,
			"count":3870,
			"max":[
				28.988557815551758,
				20.05770492553711,
				9.834724426269531
			],
			"min":[
				-28.988550186157227,
				-1.4851675033569336,
				-17.10137939453125
			],
			"type":"VEC3"
		},
		{
			"bufferView":1,
			"componentType":5126,
			"count":3870,
			"type":"VEC3"
		},
		{
			"bufferView":2,
			"componentType":5126,
			"count":3870,
			"type":"VEC2"
		},
		{
			"bufferView":3,
			"componentType":5123,
			"count":8931,
			"type":"SCALAR"
		}
	],
	"bufferViews":[
		{
			"buffer":0,
			"byteLength":46440,
			"byteOffset":0,
			"target":34962
		},
		{
			"buffer":0,
			"byteLength":46440,
			"byteOffset":46440,
			"target":34962
		},
		{
			"buffer":0,
			"byteLength":30960,
			"byteOffset":92880,
			"target":34962
		},
		{
			"buffer":0,
			"byteLength":17862,
			"byteOffset":123840,
			"target":34963
		}
	],
	"samplers":[
		{
			"magFilter":9729,
			"minFilter":9987
		}
	],
	"buffers":[
		{
			"byteLength":141704,
			"uri":"Platform01.bin"
		}
	]
}
