{
	"asset":{
		"generator":"Khronos glTF Blender I/O v3.6.28",
		"version":"2.0"
	},
	"extensionsUsed":[
		"KHR_materials_specular",
		"KHR_materials_ior"
	],
	"scene":0,
	"scenes":[
		{
			"name":"Scene",
			"nodes":[
				0
			]
		}
	],
	"nodes":[
		{
			"mesh":0,
			"name":"Map02_Platform"
		}
	],
	"materials":[
		{
			"doubleSided":true,
			"extensions":{
				"KHR_materials_specular":{
					"specularColorFactor":[
						0.237135764977738,
						0.237135764977738,
						0.237135764977738
					]
				},
				"KHR_materials_ior":{
					"ior":1.4500000476837158
				}
			},
			"name":"MAT_Atlas01",
			"pbrMetallicRoughness":{
				"baseColorTexture":{
					"index":0
				},
				"metallicFactor":0
			}
		}
	],
	"meshes":[
		{
			"name":"Plane.004",
			"primitives":[
				{
					"attributes":{
						"COLOR_0":0,
						"POSITION":1,
						"NORMAL":2,
						"TEXCOORD_0":3
					},
					"indices":4,
					"material":0
				}
			]
		}
	],
	"textures":[
		{
			"sampler":0,
			"source":0
		}
	],
	"images":[
		{
			"mimeType":"image/png",
			"name":"TEX_ColorPalette_128",
			"uri":"Texture/TEX_ColorPalette_128.png"
		}
	],
	"accessors":[
		{
			"bufferView":0,
			"componentType":5123,
			"count":3363,
			"normalized":true,
			"type":"VEC4"
		},
		{
			"bufferView":1,
			"componentType":5126,
			"count":3363,
			"max":[
				6.3084564208984375,
				2.078700542449951,
				9.314688682556152
			],
			"min":[
				-6.3072309494018555,
				-0.3007645606994629,
				-9.314226150512695
			],
			"type":"VEC3"
		},
		{
			"bufferView":2,
			"componentType":5126,
			"count":3363,
			"type":"VEC3"
		},
		{
			"bufferView":3,
			"componentType":5126,
			"count":3363,
			"type":"VEC2"
		},
		{
			"bufferView":4,
			"componentType":5123,
			"count":7596,
			"type":"SCALAR"
		}
	],
	"bufferViews":[
		{
			"buffer":0,
			"byteLength":26904,
			"byteOffset":0,
			"target":34962
		},
		{
			"buffer":0,
			"byteLength":40356,
			"byteOffset":26904,
			"target":34962
		},
		{
			"buffer":0,
			"byteLength":40356,
			"byteOffset":67260,
			"target":34962
		},
		{
			"buffer":0,
			"byteLength":26904,
			"byteOffset":107616,
			"target":34962
		},
		{
			"buffer":0,
			"byteLength":15192,
			"byteOffset":134520,
			"target":34963
		}
	],
	"samplers":[
		{
			"magFilter":9729,
			"minFilter":9987
		}
	],
	"buffers":[
		{
			"byteLength":149712,
			"uri":"Map02_Platform.bin"
		}
	]
}
