{
	"asset":{
		"generator":"Khronos glTF Blender I/O v3.6.28",
		"version":"2.0"
	},
	"extensionsUsed":[
		"KHR_materials_specular",
		"KHR_materials_ior"
	],
	"scene":0,
	"scenes":[
		{
			"name":"Scene",
			"nodes":[
				0
			]
		}
	],
	"nodes":[
		{
			"mesh":0,
			"name":"Map06_Platform"
		}
	],
	"materials":[
		{
			"doubleSided":true,
			"extensions":{
				"KHR_materials_specular":{
					"specularColorFactor":[
						1.9026286392801437,
						1.9026286392801437,
						1.9026286392801437
					]
				},
				"KHR_materials_ior":{
					"ior":1.4500000476837158
				}
			},
			"name":"MAT_Atlas01",
			"pbrMetallicRoughness":{
				"baseColorTexture":{
					"index":0
				},
				"metallicFactor":0
			}
		}
	],
	"meshes":[
		{
			"name":"Plane.004",
			"primitives":[
				{
					"attributes":{
						"COLOR_0":0,
						"POSITION":1,
						"NORMAL":2,
						"TEXCOORD_0":3
					},
					"indices":4,
					"material":0
				}
			]
		}
	],
	"textures":[
		{
			"sampler":0,
			"source":0
		}
	],
	"images":[
		{
			"mimeType":"image/png",
			"name":"TEX_ColorPalette_128",
			"uri":"Texture/TEX_ColorPalette_128.png"
		}
	],
	"accessors":[
		{
			"bufferView":0,
			"componentType":5123,
			"count":2898,
			"normalized":true,
			"type":"VEC4"
		},
		{
			"bufferView":1,
			"componentType":5126,
			"count":2898,
			"max":[
				5.90650749206543,
				1.1314705610275269,
				9.089159965515137
			],
			"min":[
				-6.024168014526367,
				-0.549375593662262,
				-8.854059219360352
			],
			"type":"VEC3"
		},
		{
			"bufferView":2,
			"componentType":5126,
			"count":2898,
			"type":"VEC3"
		},
		{
			"bufferView":3,
			"componentType":5126,
			"count":2898,
			"type":"VEC2"
		},
		{
			"bufferView":4,
			"componentType":5123,
			"count":5862,
			"type":"SCALAR"
		}
	],
	"bufferViews":[
		{
			"buffer":0,
			"byteLength":23184,
			"byteOffset":0,
			"target":34962
		},
		{
			"buffer":0,
			"byteLength":34776,
			"byteOffset":23184,
			"target":34962
		},
		{
			"buffer":0,
			"byteLength":34776,
			"byteOffset":57960,
			"target":34962
		},
		{
			"buffer":0,
			"byteLength":23184,
			"byteOffset":92736,
			"target":34962
		},
		{
			"buffer":0,
			"byteLength":11724,
			"byteOffset":115920,
			"target":34963
		}
	],
	"samplers":[
		{
			"magFilter":9729,
			"minFilter":9987
		}
	],
	"buffers":[
		{
			"byteLength":127644,
			"uri":"Map06_Platform.bin"
		}
	]
}
