{
	"asset":{
		"generator":"Khronos glTF Blender I/O v3.6.28",
		"version":"2.0"
	},
	"extensionsUsed":[
		"KHR_materials_specular",
		"KHR_materials_ior"
	],
	"scene":0,
	"scenes":[
		{
			"name":"Scene",
			"nodes":[
				0
			]
		}
	],
	"nodes":[
		{
			"mesh":0,
			"name":"Map05_Environment"
		}
	],
	"materials":[
		{
			"doubleSided":true,
			"extensions":{
				"KHR_materials_specular":{
					"specularColorFactor":[
						1.9026286392801437,
						1.9026286392801437,
						1.9026286392801437
					]
				},
				"KHR_materials_ior":{
					"ior":1.4500000476837158
				}
			},
			"name":"MAT_Atlas01.002",
			"pbrMetallicRoughness":{
				"baseColorTexture":{
					"index":0
				},
				"metallicFactor":0
			}
		},
		{
			"doubleSided":true,
			"extensions":{
				"KHR_materials_specular":{
					"specularColorFactor":[
						1.9026286392801437,
						1.9026286392801437,
						1.9026286392801437
					]
				},
				"KHR_materials_ior":{
					"ior":1.4500000476837158
				}
			},
			"name":"MAT_Atlas01",
			"pbrMetallicRoughness":{
				"baseColorTexture":{
					"index":1
				},
				"metallicFactor":0
			}
		}
	],
	"meshes":[
		{
			"name":"Plane.003",
			"primitives":[
				{
					"attributes":{
						"COLOR_0":0,
						"POSITION":1,
						"NORMAL":2,
						"TEXCOORD_0":3
					},
					"indices":4,
					"material":0
				},
				{
					"attributes":{
						"COLOR_0":5,
						"POSITION":6,
						"NORMAL":7,
						"TEXCOORD_0":8
					},
					"indices":9,
					"material":1
				}
			]
		}
	],
	"textures":[
		{
			"sampler":0,
			"source":0
		},
		{
			"sampler":0,
			"source":0
		}
	],
	"images":[
		{
			"mimeType":"image/png",
			"name":"TEX_ColorPalette_128",
			"uri":"Texture/TEX_ColorPalette_128.png"
		}
	],
	"accessors":[
		{
			"bufferView":0,
			"componentType":5123,
			"count":108,
			"normalized":true,
			"type":"VEC4"
		},
		{
			"bufferView":1,
			"componentType":5126,
			"count":108,
			"max":[
				7.760923385620117,
				-0.08611175417900085,
				11.359759330749512
			],
			"min":[
				-7.510972023010254,
				-0.9382901787757874,
				-10.096874237060547
			],
			"type":"VEC3"
		},
		{
			"bufferView":2,
			"componentType":5126,
			"count":108,
			"type":"VEC3"
		},
		{
			"bufferView":3,
			"componentType":5126,
			"count":108,
			"type":"VEC2"
		},
		{
			"bufferView":4,
			"componentType":5123,
			"count":216,
			"type":"SCALAR"
		},
		{
			"bufferView":5,
			"componentType":5123,
			"count":20958,
			"normalized":true,
			"type":"VEC4"
		},
		{
			"bufferView":6,
			"componentType":5126,
			"count":20958,
			"max":[
				19.936046600341797,
				9.84325885772705,
				17.47085952758789
			],
			"min":[
				-22.341699600219727,
				-1.7081971168518066,
				-14.813814163208008
			],
			"type":"VEC3"
		},
		{
			"bufferView":7,
			"componentType":5126,
			"count":20958,
			"type":"VEC3"
		},
		{
			"bufferView":8,
			"componentType":5126,
			"count":20958,
			"type":"VEC2"
		},
		{
			"bufferView":9,
			"componentType":5123,
			"count":46968,
			"type":"SCALAR"
		}
	],
	"bufferViews":[
		{
			"buffer":0,
			"byteLength":864,
			"byteOffset":0,
			"target":34962
		},
		{
			"buffer":0,
			"byteLength":1296,
			"byteOffset":864,
			"target":34962
		},
		{
			"buffer":0,
			"byteLength":1296,
			"byteOffset":2160,
			"target":34962
		},
		{
			"buffer":0,
			"byteLength":864,
			"byteOffset":3456,
			"target":34962
		},
		{
			"buffer":0,
			"byteLength":432,
			"byteOffset":4320,
			"target":34963
		},
		{
			"buffer":0,
			"byteLength":167664,
			"byteOffset":4752,
			"target":34962
		},
		{
			"buffer":0,
			"byteLength":251496,
			"byteOffset":172416,
			"target":34962
		},
		{
			"buffer":0,
			"byteLength":251496,
			"byteOffset":423912,
			"target":34962
		},
		{
			"buffer":0,
			"byteLength":167664,
			"byteOffset":675408,
			"target":34962
		},
		{
			"buffer":0,
			"byteLength":93936,
			"byteOffset":843072,
			"target":34963
		}
	],
	"samplers":[
		{
			"magFilter":9729,
			"minFilter":9987
		}
	],
	"buffers":[
		{
			"byteLength":937008,
			"uri":"Map05_Environment.bin"
		}
	]
}
