{
	"asset":{
		"generator":"Khronos glTF Blender I/O v3.6.28",
		"version":"2.0"
	},
	"extensionsUsed":[
		"KHR_materials_specular",
		"KHR_materials_ior"
	],
	"scene":0,
	"scenes":[
		{
			"name":"Scene",
			"nodes":[
				0
			]
		}
	],
	"nodes":[
		{
			"mesh":0,
			"name":"Map03_Platform"
		}
	],
	"materials":[
		{
			"doubleSided":true,
			"extensions":{
				"KHR_materials_specular":{
					"specularColorFactor":[
						0.237135764977738,
						0.237135764977738,
						0.237135764977738
					]
				},
				"KHR_materials_ior":{
					"ior":1.4500000476837158
				}
			},
			"name":"MAT_Atlas01",
			"pbrMetallicRoughness":{
				"baseColorTexture":{
					"index":0
				},
				"metallicFactor":0
			}
		}
	],
	"meshes":[
		{
			"name":"Plane.004",
			"primitives":[
				{
					"attributes":{
						"COLOR_0":0,
						"POSITION":1,
						"NORMAL":2,
						"TEXCOORD_0":3
					},
					"indices":4,
					"material":0
				}
			]
		}
	],
	"textures":[
		{
			"sampler":0,
			"source":0
		}
	],
	"images":[
		{
			"mimeType":"image/png",
			"name":"TEX_ColorPalette_128",
			"uri":"Texture/TEX_ColorPalette_128.png"
		}
	],
	"accessors":[
		{
			"bufferView":0,
			"componentType":5123,
			"count":2010,
			"normalized":true,
			"type":"VEC4"
		},
		{
			"bufferView":1,
			"componentType":5126,
			"count":2010,
			"max":[
				5.50754451751709,
				0.875889778137207,
				8.438637733459473
			],
			"min":[
				-5.518386363983154,
				-0.3993511199951172,
				-8.499493598937988
			],
			"type":"VEC3"
		},
		{
			"bufferView":2,
			"componentType":5126,
			"count":2010,
			"type":"VEC3"
		},
		{
			"bufferView":3,
			"componentType":5126,
			"count":2010,
			"type":"VEC2"
		},
		{
			"bufferView":4,
			"componentType":5123,
			"count":3918,
			"type":"SCALAR"
		}
	],
	"bufferViews":[
		{
			"buffer":0,
			"byteLength":16080,
			"byteOffset":0,
			"target":34962
		},
		{
			"buffer":0,
			"byteLength":24120,
			"byteOffset":16080,
			"target":34962
		},
		{
			"buffer":0,
			"byteLength":24120,
			"byteOffset":40200,
			"target":34962
		},
		{
			"buffer":0,
			"byteLength":16080,
			"byteOffset":64320,
			"target":34962
		},
		{
			"buffer":0,
			"byteLength":7836,
			"byteOffset":80400,
			"target":34963
		}
	],
	"samplers":[
		{
			"magFilter":9729,
			"minFilter":9987
		}
	],
	"buffers":[
		{
			"byteLength":88236,
			"uri":"Map03_Platform.bin"
		}
	]
}
