{
	"asset":{
		"generator":"Khronos glTF Blender I/O v3.6.28",
		"version":"2.0"
	},
	"extensionsUsed":[
		"KHR_materials_specular",
		"KHR_materials_ior"
	],
	"scene":0,
	"scenes":[
		{
			"name":"Scene",
			"nodes":[
				0
			]
		}
	],
	"nodes":[
		{
			"mesh":0,
			"name":"Map03_Environment"
		}
	],
	"materials":[
		{
			"doubleSided":true,
			"extensions":{
				"KHR_materials_specular":{
					"specularColorFactor":[
						0.237135764977738,
						0.237135764977738,
						0.237135764977738
					]
				},
				"KHR_materials_ior":{
					"ior":1.4500000476837158
				}
			},
			"name":"MAT_Atlas01",
			"pbrMetallicRoughness":{
				"baseColorTexture":{
					"index":0
				},
				"metallicFactor":0
			}
		}
	],
	"meshes":[
		{
			"name":"Plane.002",
			"primitives":[
				{
					"attributes":{
						"COLOR_0":0,
						"POSITION":1,
						"NORMAL":2,
						"TEXCOORD_0":3
					},
					"indices":4,
					"material":0
				}
			]
		}
	],
	"textures":[
		{
			"sampler":0,
			"source":0
		}
	],
	"images":[
		{
			"mimeType":"image/png",
			"name":"TEX_ColorPalette_128",
			"uri":"Texture/TEX_ColorPalette_128.png"
		}
	],
	"accessors":[
		{
			"bufferView":0,
			"componentType":5123,
			"count":14195,
			"normalized":true,
			"type":"VEC4"
		},
		{
			"bufferView":1,
			"componentType":5126,
			"count":14195,
			"max":[
				24.431154251098633,
				9.894116401672363,
				17.433372497558594
			],
			"min":[
				-22.241914749145508,
				-4.6779866218566895,
				-17.784482955932617
			],
			"type":"VEC3"
		},
		{
			"bufferView":2,
			"componentType":5126,
			"count":14195,
			"type":"VEC3"
		},
		{
			"bufferView":3,
			"componentType":5126,
			"count":14195,
			"type":"VEC2"
		},
		{
			"bufferView":4,
			"componentType":5123,
			"count":25077,
			"type":"SCALAR"
		}
	],
	"bufferViews":[
		{
			"buffer":0,
			"byteLength":113560,
			"byteOffset":0,
			"target":34962
		},
		{
			"buffer":0,
			"byteLength":170340,
			"byteOffset":113560,
			"target":34962
		},
		{
			"buffer":0,
			"byteLength":170340,
			"byteOffset":283900,
			"target":34962
		},
		{
			"buffer":0,
			"byteLength":113560,
			"byteOffset":454240,
			"target":34962
		},
		{
			"buffer":0,
			"byteLength":50154,
			"byteOffset":567800,
			"target":34963
		}
	],
	"samplers":[
		{
			"magFilter":9729,
			"minFilter":9987
		}
	],
	"buffers":[
		{
			"byteLength":617956,
			"uri":"Map03_Environment.bin"
		}
	]
}
