{
	"asset":{
		"generator":"Khronos glTF Blender I/O v3.6.28",
		"version":"2.0"
	},
	"extensionsUsed":[
		"KHR_materials_specular",
		"KHR_materials_ior"
	],
	"scene":0,
	"scenes":[
		{
			"name":"Scene",
			"nodes":[
				0
			]
		}
	],
	"nodes":[
		{
			"mesh":0,
			"name":"Map02_Environment",
			"translation":[
				0,
				-0.1229626014828682,
				0
			]
		}
	],
	"materials":[
		{
			"doubleSided":true,
			"extensions":{
				"KHR_materials_specular":{
					"specularColorFactor":[
						0.237135764977738,
						0.237135764977738,
						0.237135764977738
					]
				},
				"KHR_materials_ior":{
					"ior":1.4500000476837158
				}
			},
			"name":"MAT_Atlas01",
			"pbrMetallicRoughness":{
				"baseColorTexture":{
					"index":0
				},
				"metallicFactor":0
			}
		}
	],
	"meshes":[
		{
			"name":"Plane.001",
			"primitives":[
				{
					"attributes":{
						"COLOR_0":0,
						"POSITION":1,
						"NORMAL":2,
						"TEXCOORD_0":3
					},
					"indices":4,
					"material":0
				}
			]
		}
	],
	"textures":[
		{
			"sampler":0,
			"source":0
		}
	],
	"images":[
		{
			"mimeType":"image/png",
			"name":"TEX_ColorPalette_128",
			"uri":"Texture/TEX_ColorPalette_128.png"
		}
	],
	"accessors":[
		{
			"bufferView":0,
			"componentType":5123,
			"count":7410,
			"normalized":true,
			"type":"VEC4"
		},
		{
			"bufferView":1,
			"componentType":5126,
			"count":7410,
			"max":[
				21.99477767944336,
				9.586342811584473,
				19.070240020751953
			],
			"min":[
				-27.175012588500977,
				-0.8299989700317383,
				-14.182914733886719
			],
			"type":"VEC3"
		},
		{
			"bufferView":2,
			"componentType":5126,
			"count":7410,
			"type":"VEC3"
		},
		{
			"bufferView":3,
			"componentType":5126,
			"count":7410,
			"type":"VEC2"
		},
		{
			"bufferView":4,
			"componentType":5123,
			"count":19269,
			"type":"SCALAR"
		}
	],
	"bufferViews":[
		{
			"buffer":0,
			"byteLength":59280,
			"byteOffset":0,
			"target":34962
		},
		{
			"buffer":0,
			"byteLength":88920,
			"byteOffset":59280,
			"target":34962
		},
		{
			"buffer":0,
			"byteLength":88920,
			"byteOffset":148200,
			"target":34962
		},
		{
			"buffer":0,
			"byteLength":59280,
			"byteOffset":237120,
			"target":34962
		},
		{
			"buffer":0,
			"byteLength":38538,
			"byteOffset":296400,
			"target":34963
		}
	],
	"samplers":[
		{
			"magFilter":9729,
			"minFilter":9987
		}
	],
	"buffers":[
		{
			"byteLength":334940,
			"uri":"Map02_Environment.bin"
		}
	]
}
