{
	"asset":{
		"generator":"Khronos glTF Blender I/O v3.6.28",
		"version":"2.0"
	},
	"extensionsUsed":[
		"KHR_materials_specular",
		"KHR_materials_ior"
	],
	"scene":0,
	"scenes":[
		{
			"name":"Scene",
			"nodes":[
				0
			]
		}
	],
	"nodes":[
		{
			"mesh":0,
			"name":"Map04_Environment"
		}
	],
	"materials":[
		{
			"doubleSided":true,
			"extensions":{
				"KHR_materials_specular":{
					"specularColorFactor":[
						0.237135764977738,
						0.237135764977738,
						0.237135764977738
					]
				},
				"KHR_materials_ior":{
					"ior":1.4500000476837158
				}
			},
			"name":"MAT_Atlas01",
			"pbrMetallicRoughness":{
				"baseColorTexture":{
					"index":0
				},
				"metallicFactor":0
			}
		}
	],
	"meshes":[
		{
			"name":"Mesh.002",
			"primitives":[
				{
					"attributes":{
						"POSITION":0,
						"NORMAL":1,
						"TEXCOORD_0":2
					},
					"indices":3,
					"material":0
				}
			]
		}
	],
	"textures":[
		{
			"sampler":0,
			"source":0
		}
	],
	"images":[
		{
			"mimeType":"image/png",
			"name":"TEX_ColorPalette_128",
			"uri":"Texture/TEX_ColorPalette_128.png"
		}
	],
	"accessors":[
		{
			"bufferView":0,
			"componentType":5126,
			"count":10439,
			"max":[
				27.626365661621094,
				9.276555061340332,
				42.232051849365234
			],
			"min":[
				-29.881778717041016,
				-11.238755226135254,
				-26.811786651611328
			],
			"type":"VEC3"
		},
		{
			"bufferView":1,
			"componentType":5126,
			"count":10439,
			"type":"VEC3"
		},
		{
			"bufferView":2,
			"componentType":5126,
			"count":10439,
			"type":"VEC2"
		},
		{
			"bufferView":3,
			"componentType":5123,
			"count":19590,
			"type":"SCALAR"
		}
	],
	"bufferViews":[
		{
			"buffer":0,
			"byteLength":125268,
			"byteOffset":0,
			"target":34962
		},
		{
			"buffer":0,
			"byteLength":125268,
			"byteOffset":125268,
			"target":34962
		},
		{
			"buffer":0,
			"byteLength":83512,
			"byteOffset":250536,
			"target":34962
		},
		{
			"buffer":0,
			"byteLength":39180,
			"byteOffset":334048,
			"target":34963
		}
	],
	"samplers":[
		{
			"magFilter":9729,
			"minFilter":9987
		}
	],
	"buffers":[
		{
			"byteLength":373228,
			"uri":"Map04_Environment.bin"
		}
	]
}
