{
	"asset":{
		"generator":"Khronos glTF Blender I/O v3.6.28",
		"version":"2.0"
	},
	"extensionsUsed":[
		"KHR_materials_specular",
		"KHR_materials_ior"
	],
	"scene":0,
	"scenes":[
		{
			"name":"Scene",
			"nodes":[
				0
			]
		}
	],
	"nodes":[
		{
			"mesh":0,
			"name":"Map05_Platform"
		}
	],
	"materials":[
		{
			"doubleSided":true,
			"extensions":{
				"KHR_materials_specular":{
					"specularColorFactor":[
						1.9026286392801437,
						1.9026286392801437,
						1.9026286392801437
					]
				},
				"KHR_materials_ior":{
					"ior":1.4500000476837158
				}
			},
			"name":"MAT_Atlas01",
			"pbrMetallicRoughness":{
				"baseColorTexture":{
					"index":0
				},
				"metallicFactor":0
			}
		},
		{
			"doubleSided":true,
			"extensions":{
				"KHR_materials_specular":{
					"specularColorFactor":[
						1.9026286392801437,
						1.9026286392801437,
						1.9026286392801437
					]
				},
				"KHR_materials_ior":{
					"ior":1.4500000476837158
				}
			},
			"name":"MAT_Atlas01.001",
			"pbrMetallicRoughness":{
				"baseColorTexture":{
					"index":1
				},
				"metallicFactor":0
			}
		}
	],
	"meshes":[
		{
			"name":"Plane.004",
			"primitives":[
				{
					"attributes":{
						"COLOR_0":0,
						"POSITION":1,
						"NORMAL":2,
						"TEXCOORD_0":3
					},
					"indices":4,
					"material":0
				},
				{
					"attributes":{
						"COLOR_0":5,
						"POSITION":6,
						"NORMAL":7,
						"TEXCOORD_0":8
					},
					"indices":9,
					"material":1
				}
			]
		}
	],
	"textures":[
		{
			"sampler":0,
			"source":0
		},
		{
			"sampler":0,
			"source":0
		}
	],
	"images":[
		{
			"mimeType":"image/png",
			"name":"TEX_ColorPalette_128",
			"uri":"Texture/TEX_ColorPalette_128.png"
		}
	],
	"accessors":[
		{
			"bufferView":0,
			"componentType":5123,
			"count":7888,
			"normalized":true,
			"type":"VEC4"
		},
		{
			"bufferView":1,
			"componentType":5126,
			"count":7888,
			"max":[
				6.3943376541137695,
				2.0117743015289307,
				9.591499328613281
			],
			"min":[
				-6.394339084625244,
				-1.0199999809265137,
				-9.591501235961914
			],
			"type":"VEC3"
		},
		{
			"bufferView":2,
			"componentType":5126,
			"count":7888,
			"type":"VEC3"
		},
		{
			"bufferView":3,
			"componentType":5126,
			"count":7888,
			"type":"VEC2"
		},
		{
			"bufferView":4,
			"componentType":5123,
			"count":11898,
			"type":"SCALAR"
		},
		{
			"bufferView":5,
			"componentType":5123,
			"count":352,
			"normalized":true,
			"type":"VEC4"
		},
		{
			"bufferView":6,
			"componentType":5126,
			"count":352,
			"max":[
				5.207010269165039,
				0.06532765924930573,
				2.161198854446411
			],
			"min":[
				-5.198358535766602,
				-0.2790425419807434,
				-2.2200982570648193
			],
			"type":"VEC3"
		},
		{
			"bufferView":7,
			"componentType":5126,
			"count":352,
			"type":"VEC3"
		},
		{
			"bufferView":8,
			"componentType":5126,
			"count":352,
			"type":"VEC2"
		},
		{
			"bufferView":9,
			"componentType":5123,
			"count":624,
			"type":"SCALAR"
		}
	],
	"bufferViews":[
		{
			"buffer":0,
			"byteLength":63104,
			"byteOffset":0,
			"target":34962
		},
		{
			"buffer":0,
			"byteLength":94656,
			"byteOffset":63104,
			"target":34962
		},
		{
			"buffer":0,
			"byteLength":94656,
			"byteOffset":157760,
			"target":34962
		},
		{
			"buffer":0,
			"byteLength":63104,
			"byteOffset":252416,
			"target":34962
		},
		{
			"buffer":0,
			"byteLength":23796,
			"byteOffset":315520,
			"target":34963
		},
		{
			"buffer":0,
			"byteLength":2816,
			"byteOffset":339316,
			"target":34962
		},
		{
			"buffer":0,
			"byteLength":4224,
			"byteOffset":342132,
			"target":34962
		},
		{
			"buffer":0,
			"byteLength":4224,
			"byteOffset":346356,
			"target":34962
		},
		{
			"buffer":0,
			"byteLength":2816,
			"byteOffset":350580,
			"target":34962
		},
		{
			"buffer":0,
			"byteLength":1248,
			"byteOffset":353396,
			"target":34963
		}
	],
	"samplers":[
		{
			"magFilter":9729,
			"minFilter":9987
		}
	],
	"buffers":[
		{
			"byteLength":354644,
			"uri":"Map05_Platform.bin"
		}
	]
}
