{
	"asset":{
		"generator":"Khronos glTF Blender I/O v3.6.28",
		"version":"2.0"
	},
	"extensionsUsed":[
		"KHR_materials_specular",
		"KHR_materials_ior"
	],
	"scene":0,
	"scenes":[
		{
			"name":"Scene",
			"nodes":[
				0
			]
		}
	],
	"nodes":[
		{
			"mesh":0,
			"name":"Map04_Platform"
		}
	],
	"materials":[
		{
			"doubleSided":true,
			"extensions":{
				"KHR_materials_specular":{
					"specularColorFactor":[
						0.237135764977738,
						0.237135764977738,
						0.237135764977738
					]
				},
				"KHR_materials_ior":{
					"ior":1.4500000476837158
				}
			},
			"name":"MAT_Atlas01",
			"pbrMetallicRoughness":{
				"baseColorTexture":{
					"index":0
				},
				"metallicFactor":0
			}
		}
	],
	"meshes":[
		{
			"name":"Plane.004",
			"primitives":[
				{
					"attributes":{
						"COLOR_0":0,
						"POSITION":1,
						"NORMAL":2,
						"TEXCOORD_0":3
					},
					"indices":4,
					"material":0
				}
			]
		}
	],
	"textures":[
		{
			"sampler":0,
			"source":0
		}
	],
	"images":[
		{
			"mimeType":"image/png",
			"name":"TEX_ColorPalette_128",
			"uri":"Texture/TEX_ColorPalette_128.png"
		}
	],
	"accessors":[
		{
			"bufferView":0,
			"componentType":5123,
			"count":3169,
			"normalized":true,
			"type":"VEC4"
		},
		{
			"bufferView":1,
			"componentType":5126,
			"count":3169,
			"max":[
				6.955859184265137,
				0.7630298137664795,
				9.889135360717773
			],
			"min":[
				-7.002501487731934,
				-1.0199999809265137,
				-10.196931838989258
			],
			"type":"VEC3"
		},
		{
			"bufferView":2,
			"componentType":5126,
			"count":3169,
			"type":"VEC3"
		},
		{
			"bufferView":3,
			"componentType":5126,
			"count":3169,
			"type":"VEC2"
		},
		{
			"bufferView":4,
			"componentType":5123,
			"count":5310,
			"type":"SCALAR"
		}
	],
	"bufferViews":[
		{
			"buffer":0,
			"byteLength":25352,
			"byteOffset":0,
			"target":34962
		},
		{
			"buffer":0,
			"byteLength":38028,
			"byteOffset":25352,
			"target":34962
		},
		{
			"buffer":0,
			"byteLength":38028,
			"byteOffset":63380,
			"target":34962
		},
		{
			"buffer":0,
			"byteLength":25352,
			"byteOffset":101408,
			"target":34962
		},
		{
			"buffer":0,
			"byteLength":10620,
			"byteOffset":126760,
			"target":34963
		}
	],
	"samplers":[
		{
			"magFilter":9729,
			"minFilter":9987
		}
	],
	"buffers":[
		{
			"byteLength":137380,
			"uri":"Map04_Platform.bin"
		}
	]
}
