{
	"asset":{
		"generator":"Khronos glTF Blender I/O v3.6.28",
		"version":"2.0"
	},
	"extensionsUsed":[
		"KHR_materials_specular",
		"KHR_materials_ior"
	],
	"scene":0,
	"scenes":[
		{
			"name":"Scene",
			"nodes":[
				0
			]
		}
	],
	"nodes":[
		{
			"mesh":0,
			"name":"Map06_Environment"
		}
	],
	"materials":[
		{
			"doubleSided":true,
			"extensions":{
				"KHR_materials_specular":{
					"specularColorFactor":[
						1.9026286392801437,
						1.9026286392801437,
						1.9026286392801437
					]
				},
				"KHR_materials_ior":{
					"ior":1.4500000476837158
				}
			},
			"name":"MAT_Atlas01",
			"pbrMetallicRoughness":{
				"baseColorTexture":{
					"index":0
				},
				"metallicFactor":0
			}
		}
	],
	"meshes":[
		{
			"name":"Mesh.009",
			"primitives":[
				{
					"attributes":{
						"COLOR_0":0,
						"POSITION":1,
						"NORMAL":2,
						"TEXCOORD_0":3
					},
					"indices":4,
					"material":0
				}
			]
		}
	],
	"textures":[
		{
			"sampler":0,
			"source":0
		}
	],
	"images":[
		{
			"mimeType":"image/png",
			"name":"TEX_ColorPalette_128",
			"uri":"Texture/TEX_ColorPalette_128.png"
		}
	],
	"accessors":[
		{
			"bufferView":0,
			"componentType":5123,
			"count":20050,
			"normalized":true,
			"type":"VEC4"
		},
		{
			"bufferView":1,
			"componentType":5126,
			"count":20050,
			"max":[
				21.04317283630371,
				12.384529113769531,
				23.466373443603516
			],
			"min":[
				-20.865766525268555,
				-2.9486234188079834,
				-19.26468276977539
			],
			"type":"VEC3"
		},
		{
			"bufferView":2,
			"componentType":5126,
			"count":20050,
			"type":"VEC3"
		},
		{
			"bufferView":3,
			"componentType":5126,
			"count":20050,
			"type":"VEC2"
		},
		{
			"bufferView":4,
			"componentType":5123,
			"count":47589,
			"type":"SCALAR"
		}
	],
	"bufferViews":[
		{
			"buffer":0,
			"byteLength":160400,
			"byteOffset":0,
			"target":34962
		},
		{
			"buffer":0,
			"byteLength":240600,
			"byteOffset":160400,
			"target":34962
		},
		{
			"buffer":0,
			"byteLength":240600,
			"byteOffset":401000,
			"target":34962
		},
		{
			"buffer":0,
			"byteLength":160400,
			"byteOffset":641600,
			"target":34962
		},
		{
			"buffer":0,
			"byteLength":95178,
			"byteOffset":802000,
			"target":34963
		}
	],
	"samplers":[
		{
			"magFilter":9729,
			"minFilter":9987
		}
	],
	"buffers":[
		{
			"byteLength":897180,
			"uri":"Map06_Environment.bin"
		}
	]
}
